<mxfile host="app.diagrams.net" modified="2021-09-23T08:45:18.131Z" agent="5.0 (Windows NT 10.0; Win64; x64) AppleWebKit/537.36 (KHTML, like Gecko) Chrome/93.0.4577.82 Safari/537.36" etag="lhI5RrJUj62g7_rjZI4m" version="15.2.5" type="github">
  <diagram id="hzwk6Bcpp2_AX96h1ZA5" name="Page-1">
    <mxGraphModel dx="1019" dy="519" grid="1" gridSize="10" guides="1" tooltips="1" connect="1" arrows="1" fold="1" page="1" pageScale="1" pageWidth="827" pageHeight="1169" math="0" shadow="0">
      <root>
        <mxCell id="0" />
        <mxCell id="1" parent="0" />
        <mxCell id="i2sdB8nvGL5RpiBytsLe-16" value="" style="edgeStyle=orthogonalEdgeStyle;rounded=0;orthogonalLoop=1;jettySize=auto;html=1;" edge="1" parent="1" source="i2sdB8nvGL5RpiBytsLe-1" target="i2sdB8nvGL5RpiBytsLe-15">
          <mxGeometry relative="1" as="geometry" />
        </mxCell>
        <mxCell id="i2sdB8nvGL5RpiBytsLe-20" style="edgeStyle=orthogonalEdgeStyle;rounded=0;orthogonalLoop=1;jettySize=auto;html=1;entryX=-0.03;entryY=0.393;entryDx=0;entryDy=0;entryPerimeter=0;" edge="1" parent="1" source="i2sdB8nvGL5RpiBytsLe-1" target="i2sdB8nvGL5RpiBytsLe-4">
          <mxGeometry relative="1" as="geometry">
            <mxPoint x="110" y="50" as="targetPoint" />
            <Array as="points">
              <mxPoint x="120" y="440" />
              <mxPoint x="120" y="50" />
              <mxPoint x="167" y="50" />
            </Array>
          </mxGeometry>
        </mxCell>
        <mxCell id="i2sdB8nvGL5RpiBytsLe-1" value="pressed = ON" style="strokeWidth=2;html=1;shape=mxgraph.flowchart.decision;whiteSpace=wrap;" vertex="1" parent="1">
          <mxGeometry x="310" y="390" width="100" height="100" as="geometry" />
        </mxCell>
        <mxCell id="i2sdB8nvGL5RpiBytsLe-10" value="" style="edgeStyle=none;rounded=0;orthogonalLoop=1;jettySize=auto;html=1;" edge="1" parent="1" source="i2sdB8nvGL5RpiBytsLe-2" target="i2sdB8nvGL5RpiBytsLe-9">
          <mxGeometry relative="1" as="geometry" />
        </mxCell>
        <mxCell id="i2sdB8nvGL5RpiBytsLe-12" style="edgeStyle=orthogonalEdgeStyle;rounded=0;orthogonalLoop=1;jettySize=auto;html=1;entryX=0;entryY=0.5;entryDx=0;entryDy=0;entryPerimeter=0;startArrow=none;" edge="1" parent="1" source="i2sdB8nvGL5RpiBytsLe-13" target="i2sdB8nvGL5RpiBytsLe-4">
          <mxGeometry relative="1" as="geometry">
            <mxPoint x="120" y="60" as="targetPoint" />
            <Array as="points">
              <mxPoint x="150" y="60" />
            </Array>
          </mxGeometry>
        </mxCell>
        <mxCell id="i2sdB8nvGL5RpiBytsLe-2" value="pressed = ON" style="strokeWidth=2;html=1;shape=mxgraph.flowchart.decision;whiteSpace=wrap;" vertex="1" parent="1">
          <mxGeometry x="160" y="270" width="100" height="100" as="geometry" />
        </mxCell>
        <mxCell id="i2sdB8nvGL5RpiBytsLe-7" value="" style="edgeStyle=none;rounded=0;orthogonalLoop=1;jettySize=auto;html=1;" edge="1" parent="1" source="i2sdB8nvGL5RpiBytsLe-4" target="i2sdB8nvGL5RpiBytsLe-6">
          <mxGeometry relative="1" as="geometry" />
        </mxCell>
        <mxCell id="i2sdB8nvGL5RpiBytsLe-4" value="Start" style="strokeWidth=2;html=1;shape=mxgraph.flowchart.start_1;whiteSpace=wrap;" vertex="1" parent="1">
          <mxGeometry x="170" y="30" width="100" height="60" as="geometry" />
        </mxCell>
        <mxCell id="i2sdB8nvGL5RpiBytsLe-8" value="" style="edgeStyle=none;rounded=0;orthogonalLoop=1;jettySize=auto;html=1;" edge="1" parent="1" source="i2sdB8nvGL5RpiBytsLe-6" target="i2sdB8nvGL5RpiBytsLe-2">
          <mxGeometry relative="1" as="geometry" />
        </mxCell>
        <mxCell id="i2sdB8nvGL5RpiBytsLe-6" value="Light Off" style="shape=parallelogram;html=1;strokeWidth=2;perimeter=parallelogramPerimeter;whiteSpace=wrap;rounded=1;arcSize=12;size=0.23;" vertex="1" parent="1">
          <mxGeometry x="160" y="150" width="100" height="60" as="geometry" />
        </mxCell>
        <mxCell id="i2sdB8nvGL5RpiBytsLe-14" value="" style="edgeStyle=orthogonalEdgeStyle;rounded=0;orthogonalLoop=1;jettySize=auto;html=1;" edge="1" parent="1" source="i2sdB8nvGL5RpiBytsLe-9" target="i2sdB8nvGL5RpiBytsLe-1">
          <mxGeometry relative="1" as="geometry" />
        </mxCell>
        <mxCell id="i2sdB8nvGL5RpiBytsLe-9" value="Light On - Dimmed&amp;nbsp;" style="shape=parallelogram;html=1;strokeWidth=2;perimeter=parallelogramPerimeter;whiteSpace=wrap;rounded=1;arcSize=12;size=0.23;" vertex="1" parent="1">
          <mxGeometry x="310" y="290" width="100" height="60" as="geometry" />
        </mxCell>
        <mxCell id="i2sdB8nvGL5RpiBytsLe-11" value="true" style="text;html=1;align=center;verticalAlign=middle;resizable=0;points=[];autosize=1;strokeColor=none;fillColor=none;" vertex="1" parent="1">
          <mxGeometry x="270" y="300" width="40" height="20" as="geometry" />
        </mxCell>
        <mxCell id="i2sdB8nvGL5RpiBytsLe-23" style="edgeStyle=orthogonalEdgeStyle;rounded=0;orthogonalLoop=1;jettySize=auto;html=1;" edge="1" parent="1" source="i2sdB8nvGL5RpiBytsLe-15" target="i2sdB8nvGL5RpiBytsLe-22">
          <mxGeometry relative="1" as="geometry" />
        </mxCell>
        <mxCell id="i2sdB8nvGL5RpiBytsLe-15" value="Light On - Medium" style="shape=parallelogram;html=1;strokeWidth=2;perimeter=parallelogramPerimeter;whiteSpace=wrap;rounded=1;arcSize=12;size=0.23;" vertex="1" parent="1">
          <mxGeometry x="450" y="410" width="100" height="60" as="geometry" />
        </mxCell>
        <mxCell id="i2sdB8nvGL5RpiBytsLe-17" value="true" style="text;html=1;align=center;verticalAlign=middle;resizable=0;points=[];autosize=1;strokeColor=none;fillColor=none;" vertex="1" parent="1">
          <mxGeometry x="410" y="420" width="40" height="20" as="geometry" />
        </mxCell>
        <mxCell id="i2sdB8nvGL5RpiBytsLe-13" value="false" style="text;html=1;align=center;verticalAlign=middle;resizable=0;points=[];autosize=1;strokeColor=none;fillColor=none;" vertex="1" parent="1">
          <mxGeometry x="130" y="280" width="40" height="20" as="geometry" />
        </mxCell>
        <mxCell id="i2sdB8nvGL5RpiBytsLe-19" value="" style="edgeStyle=orthogonalEdgeStyle;rounded=0;orthogonalLoop=1;jettySize=auto;html=1;entryX=0;entryY=0.5;entryDx=0;entryDy=0;entryPerimeter=0;endArrow=none;" edge="1" parent="1" source="i2sdB8nvGL5RpiBytsLe-2" target="i2sdB8nvGL5RpiBytsLe-13">
          <mxGeometry relative="1" as="geometry">
            <mxPoint x="170" y="60" as="targetPoint" />
            <mxPoint x="160" y="320" as="sourcePoint" />
            <Array as="points">
              <mxPoint x="150" y="320" />
            </Array>
          </mxGeometry>
        </mxCell>
        <mxCell id="i2sdB8nvGL5RpiBytsLe-21" value="false" style="text;html=1;align=center;verticalAlign=middle;resizable=0;points=[];autosize=1;strokeColor=none;fillColor=none;" vertex="1" parent="1">
          <mxGeometry x="240" y="420" width="40" height="20" as="geometry" />
        </mxCell>
        <mxCell id="i2sdB8nvGL5RpiBytsLe-25" value="" style="edgeStyle=orthogonalEdgeStyle;rounded=0;orthogonalLoop=1;jettySize=auto;html=1;" edge="1" parent="1" source="i2sdB8nvGL5RpiBytsLe-22" target="i2sdB8nvGL5RpiBytsLe-24">
          <mxGeometry relative="1" as="geometry" />
        </mxCell>
        <mxCell id="i2sdB8nvGL5RpiBytsLe-28" style="edgeStyle=orthogonalEdgeStyle;rounded=0;orthogonalLoop=1;jettySize=auto;html=1;entryX=0.145;entryY=0.145;entryDx=0;entryDy=0;entryPerimeter=0;" edge="1" parent="1" source="i2sdB8nvGL5RpiBytsLe-22" target="i2sdB8nvGL5RpiBytsLe-4">
          <mxGeometry relative="1" as="geometry">
            <mxPoint x="90" y="30" as="targetPoint" />
            <Array as="points">
              <mxPoint x="100" y="570" />
              <mxPoint x="100" y="39" />
            </Array>
          </mxGeometry>
        </mxCell>
        <mxCell id="i2sdB8nvGL5RpiBytsLe-22" value="pressed = ON" style="strokeWidth=2;html=1;shape=mxgraph.flowchart.decision;whiteSpace=wrap;" vertex="1" parent="1">
          <mxGeometry x="450" y="520" width="100" height="100" as="geometry" />
        </mxCell>
        <mxCell id="i2sdB8nvGL5RpiBytsLe-32" value="" style="edgeStyle=orthogonalEdgeStyle;rounded=0;orthogonalLoop=1;jettySize=auto;html=1;" edge="1" parent="1" source="i2sdB8nvGL5RpiBytsLe-24" target="i2sdB8nvGL5RpiBytsLe-31">
          <mxGeometry relative="1" as="geometry" />
        </mxCell>
        <mxCell id="i2sdB8nvGL5RpiBytsLe-24" value="Light On - Bright" style="shape=parallelogram;html=1;strokeWidth=2;perimeter=parallelogramPerimeter;whiteSpace=wrap;rounded=1;arcSize=12;size=0.23;" vertex="1" parent="1">
          <mxGeometry x="590" y="540" width="120" height="60" as="geometry" />
        </mxCell>
        <mxCell id="i2sdB8nvGL5RpiBytsLe-27" value="true" style="text;html=1;align=center;verticalAlign=middle;resizable=0;points=[];autosize=1;strokeColor=none;fillColor=none;" vertex="1" parent="1">
          <mxGeometry x="550" y="550" width="40" height="20" as="geometry" />
        </mxCell>
        <mxCell id="i2sdB8nvGL5RpiBytsLe-29" value="false" style="text;html=1;align=center;verticalAlign=middle;resizable=0;points=[];autosize=1;strokeColor=none;fillColor=none;" vertex="1" parent="1">
          <mxGeometry x="370" y="550" width="40" height="20" as="geometry" />
        </mxCell>
        <mxCell id="i2sdB8nvGL5RpiBytsLe-33" style="edgeStyle=orthogonalEdgeStyle;rounded=0;orthogonalLoop=1;jettySize=auto;html=1;entryX=1;entryY=0.5;entryDx=0;entryDy=0;" edge="1" parent="1" source="i2sdB8nvGL5RpiBytsLe-31" target="i2sdB8nvGL5RpiBytsLe-9">
          <mxGeometry relative="1" as="geometry">
            <mxPoint x="450" y="320" as="targetPoint" />
            <Array as="points">
              <mxPoint x="750" y="690" />
              <mxPoint x="750" y="320" />
            </Array>
          </mxGeometry>
        </mxCell>
        <mxCell id="i2sdB8nvGL5RpiBytsLe-35" style="edgeStyle=orthogonalEdgeStyle;rounded=0;orthogonalLoop=1;jettySize=auto;html=1;entryX=0.226;entryY=0.041;entryDx=0;entryDy=0;entryPerimeter=0;" edge="1" parent="1" source="i2sdB8nvGL5RpiBytsLe-31" target="i2sdB8nvGL5RpiBytsLe-4">
          <mxGeometry relative="1" as="geometry">
            <mxPoint x="50" y="30" as="targetPoint" />
            <Array as="points">
              <mxPoint x="70" y="690" />
              <mxPoint x="70" y="30" />
              <mxPoint x="185" y="30" />
              <mxPoint x="185" y="33" />
            </Array>
          </mxGeometry>
        </mxCell>
        <mxCell id="i2sdB8nvGL5RpiBytsLe-31" value="pressed = ON" style="strokeWidth=2;html=1;shape=mxgraph.flowchart.decision;whiteSpace=wrap;" vertex="1" parent="1">
          <mxGeometry x="600" y="640" width="100" height="100" as="geometry" />
        </mxCell>
        <mxCell id="i2sdB8nvGL5RpiBytsLe-34" value="true" style="text;html=1;align=center;verticalAlign=middle;resizable=0;points=[];autosize=1;strokeColor=none;fillColor=none;" vertex="1" parent="1">
          <mxGeometry x="700" y="670" width="40" height="20" as="geometry" />
        </mxCell>
        <mxCell id="i2sdB8nvGL5RpiBytsLe-36" value="fasle" style="text;html=1;align=center;verticalAlign=middle;resizable=0;points=[];autosize=1;strokeColor=none;fillColor=none;" vertex="1" parent="1">
          <mxGeometry x="540" y="670" width="40" height="20" as="geometry" />
        </mxCell>
      </root>
    </mxGraphModel>
  </diagram>
</mxfile>
